<?xml version="1.0" standalone="no"?>
<!DOCTYPE svg PUBLIC "-//W3C//DTD SVG 20010904//EN"
 "http://www.w3.org/TR/2001/REC-SVG-20010904/DTD/svg10.dtd">
<svg version="1.0" xmlns="http://www.w3.org/2000/svg"
 width="1024.000000pt" height="600.000000pt" viewBox="0 0 1024.000000 600.000000"
 preserveAspectRatio="xMidYMid meet">

<g transform="translate(0.000000,600.000000) scale(0.100000,-0.100000)"
fill="#000000" stroke="none">
<path d="M5025 4093 c-421 -38 -789 -322 -935 -721 -81 -224 -83 -513 -3 -735
102 -286 298 -501 575 -632 424 -200 937 -100 1262 245 364 387 395 985 74
1411 -226 300 -600 466 -973 432z m165 -130 c0 -51 75 -71 108 -28 23 29 23
29 90 10 47 -14 52 -18 52 -45 0 -18 8 -34 22 -44 30 -21 47 -20 75 5 l22 22
55 -33 c49 -30 54 -36 49 -61 -8 -41 12 -69 50 -69 18 0 38 5 44 11 8 8 24 -1
57 -35 39 -39 45 -49 36 -65 -27 -52 0 -96 57 -94 38 2 40 0 69 -53 27 -51 28
-56 12 -65 -23 -13 -24 -72 -2 -90 9 -7 28 -13 42 -14 24 0 28 -6 43 -61 l17
-62 -24 -13 c-14 -7 -27 -23 -30 -36 -8 -29 20 -73 45 -73 14 0 21 -10 25 -35
10 -53 -2 -105 -25 -105 -10 0 -26 -11 -35 -25 -21 -32 -11 -72 20 -86 l24
-11 -17 -62 c-15 -56 -19 -61 -46 -64 -17 -2 -36 -8 -42 -14 -18 -15 -16 -68
3 -89 15 -17 14 -22 -13 -71 -28 -50 -32 -53 -65 -50 -57 5 -85 -38 -57 -90
10 -19 6 -27 -35 -66 -35 -33 -50 -42 -59 -33 -16 16 -63 13 -82 -5 -10 -11
-15 -29 -13 -52 3 -32 0 -36 -49 -64 l-52 -29 -31 23 c-29 21 -33 21 -58 7
-19 -10 -29 -25 -32 -49 -5 -32 -8 -35 -63 -49 l-59 -15 -20 27 c-32 44 -108
27 -108 -25 0 -16 -9 -18 -66 -18 -63 0 -65 1 -75 30 -17 47 -90 54 -104 9 -6
-18 -12 -20 -45 -15 -68 11 -90 23 -90 50 0 25 -41 66 -66 66 -8 0 -23 -9 -34
-20 -11 -11 -22 -20 -25 -20 -3 0 -28 14 -56 31 -44 28 -50 35 -44 56 13 53
-43 91 -94 63 -14 -7 -26 0 -61 35 -41 42 -42 45 -30 74 11 26 10 35 -5 57
-13 21 -23 25 -53 22 -35 -3 -38 0 -69 51 l-33 55 20 21 c39 41 16 95 -40 95
-25 0 -31 5 -39 38 -24 90 -24 88 3 106 18 11 26 25 26 44 0 35 -9 48 -43 61
-25 10 -27 14 -27 71 0 57 2 61 27 71 33 12 43 26 43 61 0 17 -9 33 -27 46
l-26 19 19 58 c17 52 22 59 49 61 53 5 72 59 35 99 -19 20 -19 21 11 73 23 41
35 53 52 52 44 -4 57 0 73 25 14 21 14 30 4 56 -12 29 -11 32 31 75 28 29 46
41 53 34 6 -6 25 -10 43 -10 40 0 67 35 58 73 -6 23 -1 29 46 56 52 30 52 30
77 10 45 -35 89 -17 101 40 5 29 12 36 51 47 61 18 77 17 83 -6 11 -41 107
-34 107 8 0 29 8 32 77 32 52 0 63 -3 63 -17z"/>
<path d="M5117 3765 c-4 -71 -12 -182 -17 -245 -6 -71 -6 -130 0 -155 5 -22
13 -89 17 -150 l8 -110 9 130 c10 142 10 255 -2 500 l-8 160 -7 -130z"/>
<path d="M4894 3840 c49 -222 78 -359 83 -398 3 -26 15 -65 26 -87 11 -22 37
-92 58 -155 21 -63 38 -113 38 -110 1 3 -10 55 -24 115 -14 61 -25 126 -25
145 0 19 -36 143 -81 275 -44 132 -78 229 -75 215z"/>
<path d="M5273 3617 c-39 -122 -75 -247 -78 -277 -4 -30 -16 -93 -26 -139 -23
-99 -19 -119 5 -29 10 35 33 99 51 143 19 44 43 130 55 190 12 61 33 159 46
219 14 60 24 110 22 111 -2 2 -35 -96 -75 -218z"/>
<path d="M4785 3554 c63 -124 127 -240 143 -258 15 -18 54 -74 86 -124 32 -51
60 -92 62 -92 2 0 -18 42 -45 93 -27 50 -57 115 -67 142 -10 28 -61 115 -114
195 -53 80 -114 173 -135 208 -21 34 -39 62 -41 62 -2 0 49 -102 111 -226z"/>
<path d="M5514 3693 c-26 -43 -84 -132 -128 -198 -44 -66 -92 -150 -107 -186
-14 -37 -45 -101 -68 -144 -49 -91 -50 -110 -2 -27 19 31 59 91 90 132 45 61
279 500 267 500 -2 0 -25 -35 -52 -77z"/>
<path d="M4576 3534 c60 -66 139 -154 174 -195 35 -41 84 -88 109 -105 25 -17
82 -64 126 -105 l80 -74 -65 73 c-36 40 -82 97 -103 125 -21 29 -94 102 -162
162 -68 61 -157 139 -197 175 -68 61 -66 58 38 -56z"/>
<path d="M5665 3555 c-55 -52 -139 -127 -186 -167 -47 -40 -98 -91 -112 -114
-15 -23 -64 -81 -109 -130 -83 -89 -76 -90 17 -2 28 26 76 66 107 90 54 41
405 420 387 418 -2 -1 -49 -43 -104 -95z"/>
<path d="M4330 3455 c0 -1 28 -19 63 -40 34 -21 129 -83 210 -137 82 -54 173
-108 202 -119 30 -11 93 -40 140 -65 47 -25 85 -43 85 -41 0 3 -34 26 -75 52
-41 25 -97 64 -123 85 -38 30 -502 275 -502 265z"/>
<path d="M5671 3334 c-123 -63 -238 -127 -255 -142 -18 -16 -74 -54 -124 -86
-51 -32 -92 -60 -92 -62 0 -1 37 17 83 41 45 25 116 58 157 75 40 17 88 41
105 54 17 13 103 70 190 125 152 97 174 112 164 110 -2 0 -105 -52 -228 -115z"/>
<path d="M4489 3155 c124 -41 258 -79 299 -85 41 -5 104 -17 140 -25 84 -20
90 -13 10 10 -35 10 -98 33 -140 51 -42 17 -108 37 -145 43 -37 7 -137 28
-222 47 -85 19 -157 34 -160 33 -3 0 95 -33 218 -74z"/>
<path d="M5915 3219 c-16 -5 -115 -27 -220 -49 -119 -24 -222 -52 -275 -74
-46 -19 -106 -40 -133 -47 -26 -6 -46 -13 -44 -16 3 -2 36 3 73 12 38 9 102
20 141 25 61 8 163 38 488 145 45 15 17 19 -30 4z"/>
<path d="M4590 3020 c-41 -4 -127 -8 -190 -9 -191 -4 -168 -17 45 -26 110 -5
223 -8 250 -8 98 2 306 16 301 21 -3 3 -56 8 -118 13 -62 4 -135 10 -163 12
-27 3 -84 1 -125 -3z"/>
<path d="M5475 3020 c-22 -5 -71 -10 -110 -10 -131 -3 -126 -16 10 -24 175
-11 199 -11 430 -1 110 5 189 11 175 15 -14 4 -101 10 -195 13 -93 4 -192 9
-220 11 -27 3 -68 1 -90 -4z"/>
<path d="M4925 2954 c-33 -8 -100 -21 -150 -28 -49 -8 -162 -38 -250 -68 -88
-30 -182 -62 -210 -71 -65 -22 -40 -18 205 33 113 23 225 51 250 63 25 11 90
35 145 53 106 35 110 42 10 18z"/>
<path d="M5345 2931 c61 -21 124 -45 140 -53 17 -9 62 -21 100 -27 39 -7 139
-28 224 -47 85 -19 157 -34 160 -33 3 0 -93 33 -214 73 -132 44 -254 78 -305
85 -47 7 -110 19 -141 27 -93 23 -81 15 36 -25z"/>
<path d="M4965 2915 c-33 -19 -96 -49 -140 -67 -44 -17 -127 -64 -185 -103
-58 -40 -147 -98 -197 -130 -51 -32 -93 -59 -93 -60 0 -10 443 223 475 250 22
18 77 56 123 85 70 44 91 60 80 60 -2 0 -30 -16 -63 -35z"/>
<path d="M4997 2883 c-31 -32 -88 -80 -125 -108 -37 -27 -84 -70 -104 -95 -20
-25 -96 -110 -169 -190 -143 -155 -135 -154 37 5 60 55 133 120 162 145 29 24
69 67 89 94 20 28 59 76 87 106 104 112 118 138 23 43z"/>
<path d="M5252 2861 c43 -46 92 -104 109 -130 18 -25 51 -61 73 -79 23 -19
109 -95 191 -170 83 -74 136 -120 119 -101 -16 19 -73 81 -125 139 -52 58
-113 127 -135 153 -23 27 -68 70 -102 95 -33 26 -94 76 -134 112 l-73 65 77
-84z"/>
<path d="M5230 2936 c0 -3 28 -21 62 -42 34 -21 85 -57 114 -80 28 -23 147
-90 263 -148 201 -101 256 -124 174 -75 -21 12 -109 69 -196 127 -88 57 -175
109 -196 117 -20 7 -78 33 -129 59 -50 25 -92 44 -92 42z"/>
<path d="M5025 2843 c-26 -43 -64 -98 -84 -123 -21 -25 -90 -148 -154 -275
-64 -126 -111 -222 -104 -211 190 287 266 410 281 451 10 28 40 92 68 143 27
50 47 92 44 92 -2 0 -26 -35 -51 -77z"/>
<path d="M5170 2917 c0 -4 22 -48 49 -99 27 -51 57 -115 67 -143 10 -27 50
-97 89 -155 40 -58 98 -147 130 -197 32 -51 59 -93 60 -93 10 0 -224 444 -251
477 -20 24 -60 82 -90 130 -30 47 -54 83 -54 80z"/>
<path d="M5060 2798 c-18 -57 -42 -123 -55 -148 -12 -25 -25 -66 -28 -92 -5
-39 -34 -176 -83 -398 -3 -14 31 83 75 215 45 132 81 256 81 275 0 19 11 82
24 140 13 58 23 106 22 108 -2 1 -18 -44 -36 -100z"/>
<path d="M5117 2785 c-5 -60 -12 -130 -17 -155 -5 -25 -5 -93 0 -155 5 -60 13
-168 17 -240 l7 -130 8 160 c12 245 12 358 2 500 l-9 130 -8 -110z"/>
<path d="M5151 2888 c-1 -4 8 -45 18 -90 11 -46 23 -110 27 -143 4 -33 37
-152 74 -265 37 -113 71 -220 75 -238 4 -18 9 -32 11 -29 2 2 -7 51 -20 108
-14 57 -36 165 -51 239 -14 74 -38 162 -52 195 -15 33 -39 98 -54 145 -15 47
-28 82 -28 78z"/>
<path d="M0 915 l0 -915 5120 0 5120 0 0 915 0 915 -5120 0 -5120 0 0 -915z"/>
</g>
</svg>
