<?xml version="1.0" standalone="no"?>
<!DOCTYPE svg PUBLIC "-//W3C//DTD SVG 20010904//EN"
 "http://www.w3.org/TR/2001/REC-SVG-20010904/DTD/svg10.dtd">
<svg version="1.0" xmlns="http://www.w3.org/2000/svg"
 width="225.000000pt" height="225.000000pt" viewBox="0 0 225.000000 225.000000"
 preserveAspectRatio="xMidYMid meet">

<g transform="translate(0.000000,225.000000) scale(0.100000,-0.100000)"
fill="#000000" stroke="none">
<path d="M376 1493 c-6 -14 -5 -15 5 -6 7 7 10 15 7 18 -3 3 -9 -2 -12 -12z"/>
<path d="M1850 1505 c0 -6 6 -19 14 -30 7 -11 16 -31 20 -45 6 -24 6 -24 -9 3
-19 32 -25 35 -18 6 4 -12 0 -25 -8 -31 -12 -8 -11 -9 1 -5 8 2 25 1 37 -4 21
-8 21 -6 11 24 -13 37 -48 97 -48 82z"/>
<path d="M368 1458 c5 -5 16 -8 23 -6 8 3 3 7 -10 11 -17 4 -21 3 -13 -5z"/>
<path d="M370 1420 c24 -24 33 -25 28 -3 -2 9 -13 18 -25 19 -23 4 -23 4 -3
-16z"/>
<path d="M1035 1354 c-58 -20 -106 -64 -140 -125 -25 -46 -29 -65 -29 -124 1
-82 17 -126 68 -183 49 -54 124 -86 201 -86 109 1 195 58 243 163 47 101 16
233 -70 306 -75 63 -181 82 -273 49z m115 -17 c0 -5 11 -6 25 -3 18 5 27 2 32
-9 3 -9 12 -14 19 -11 19 7 44 -3 44 -19 0 -7 9 -15 20 -18 11 -3 20 -12 20
-21 0 -9 6 -16 14 -16 15 0 29 -27 21 -40 -3 -4 2 -13 10 -20 9 -8 13 -21 9
-36 -3 -13 -2 -24 3 -24 5 0 10 -7 10 -15 0 -8 -4 -15 -9 -15 -5 0 -7 -13 -3
-29 4 -21 2 -30 -10 -35 -9 -3 -15 -11 -14 -18 3 -27 -1 -38 -15 -38 -8 0 -16
-10 -18 -22 -2 -16 -9 -22 -20 -20 -11 2 -18 -3 -18 -13 0 -14 -5 -16 -38 -19
-7 -1 -17 -7 -21 -15 -6 -8 -16 -11 -31 -6 -15 5 -25 2 -31 -6 -7 -11 -12 -12
-28 -2 -10 6 -28 9 -38 7 -13 -4 -22 0 -26 9 -4 10 -13 13 -27 10 -16 -4 -23
0 -27 16 -3 13 -11 20 -19 17 -7 -3 -18 2 -24 10 -7 8 -9 14 -4 14 4 0 -2 9
-15 21 -12 12 -20 27 -17 35 3 7 -2 18 -11 22 -10 6 -14 16 -10 26 4 9 1 26
-6 37 -10 16 -9 21 2 28 8 6 11 16 6 31 -5 15 -2 25 6 31 8 4 14 14 15 21 3
33 5 38 20 38 9 0 14 6 11 13 -6 15 14 35 31 29 6 -2 12 3 12 12 0 15 11 20
38 17 7 -1 15 5 18 14 5 11 14 15 30 11 12 -3 25 -2 28 2 7 12 36 11 36 -1z"/>
<path d="M1133 1235 c0 -33 2 -45 4 -27 2 18 2 45 0 60 -2 15 -4 0 -4 -33z"/>
<path d="M1014 1219 c26 -29 45 -54 42 -56 -2 -3 -18 3 -35 12 -41 21 -40 12
3 -14 38 -24 51 -27 40 -9 -5 8 -1 9 12 4 10 -4 -8 20 -41 53 -33 34 -61 61
-63 61 -2 0 17 -23 42 -51z"/>
<path d="M1162 1231 c-14 -46 -16 -74 -3 -51 9 17 24 90 18 90 -2 0 -9 -17
-15 -39z"/>
<path d="M1060 1221 c19 -38 40 -61 40 -45 0 9 -51 84 -57 84 -2 0 6 -18 17
-39z"/>
<path d="M1096 1230 c3 -19 10 -42 16 -50 6 -10 7 -3 2 20 -3 19 -10 42 -16
50 -6 10 -7 3 -2 -20z"/>
<path d="M1192 1216 c-23 -34 -28 -51 -13 -41 11 6 43 67 38 71 -1 2 -12 -12
-25 -30z"/>
<path d="M1225 1200 c-21 -22 -33 -40 -26 -40 7 0 9 -4 6 -10 -10 -16 5 -12
41 11 43 26 44 35 3 14 -17 -9 -33 -15 -35 -13 -2 2 10 21 27 41 40 48 33 47
-16 -3z"/>
<path d="M1000 1136 c19 -8 42 -15 50 -15 26 -1 -10 16 -50 23 l-35 6 35 -14z"/>
<path d="M1240 1138 c-19 -6 -30 -12 -24 -14 5 -3 28 2 50 10 45 17 26 19 -26
4z"/>
<path d="M957 1103 c18 -2 50 -2 70 0 21 2 7 4 -32 4 -38 0 -55 -2 -38 -4z"/>
<path d="M1213 1103 c8 -7 88 -6 95 2 3 3 -19 5 -48 5 -29 0 -50 -3 -47 -7z"/>
<path d="M1005 1074 l-40 -13 40 5 c42 6 85 24 55 23 -8 0 -33 -7 -55 -15z"/>
<path d="M1235 1070 c11 -5 29 -9 40 -9 l20 0 -20 9 c-11 5 -29 9 -40 9 l-20
0 20 -9z"/>
<path d="M1035 1054 c-16 -8 -41 -24 -55 -35 -21 -16 -16 -16 27 5 28 14 54
30 58 36 8 13 6 13 -30 -6z"/>
<path d="M1200 1059 c27 -18 90 -50 90 -45 0 7 -85 56 -96 56 -5 0 -2 -5 6
-11z"/>
<path d="M1069 1047 c-8 -7 -33 -32 -55 -57 l-39 -45 45 39 c55 49 94 98 49
63z"/>
<path d="M1190 1041 c0 -5 19 -24 43 -42 l42 -33 -40 42 c-42 45 -45 47 -45
33z"/>
<path d="M1082 1028 c-5 -7 -19 -33 -31 -58 -26 -53 0 -26 30 33 19 37 20 48
1 25z"/>
<path d="M1170 1036 c0 -10 40 -76 46 -76 3 0 -2 12 -10 28 -22 40 -36 58 -36
48z"/>
<path d="M1150 1019 c0 -9 7 -32 15 -50 l16 -34 -7 35 c-8 43 -23 74 -24 49z"/>
<path d="M1095 984 c-9 -50 0 -53 13 -4 5 22 6 40 2 40 -4 0 -11 -16 -15 -36z"/>
<path d="M1133 960 c0 -36 2 -50 4 -32 2 17 2 47 0 65 -2 17 -4 3 -4 -33z"/>
<path d="M357 793 c17 -45 80 -144 128 -203 81 -99 162 -160 291 -221 199 -94
432 -102 643 -23 178 67 357 227 442 395 16 32 29 61 29 64 0 3 -346 5 -770 5
-729 0 -769 -1 -763 -17z"/>
</g>
</svg>
