<?xml version="1.0" standalone="no"?>
<!DOCTYPE svg PUBLIC "-//W3C//DTD SVG 20010904//EN"
 "http://www.w3.org/TR/2001/REC-SVG-20010904/DTD/svg10.dtd">
<svg version="1.0" xmlns="http://www.w3.org/2000/svg"
 width="300.000000pt" height="171.000000pt" viewBox="0 0 300.000000 171.000000"
 preserveAspectRatio="xMidYMid meet">
<metadata>
Created by potrace 1.10, written by Peter Selinger 2001-2011
</metadata>
<g transform="translate(0.000000,171.000000) scale(0.100000,-0.100000)"
fill="#000000" stroke="none">
<path d="M725 1505 c51 -43 72 -49 36 -11 -19 20 -42 36 -50 36 -11 0 -6 -9
14 -25z"/>
<path d="M1115 1516 c-89 -17 -254 -61 -492 -132 -329 -97 -359 -101 -448 -60
-30 14 -55 24 -55 22 0 -2 31 -31 70 -65 l70 -62 202 50 c112 28 249 65 306
83 l103 32 -28 22 c-17 14 -22 23 -14 24 8 0 24 -9 36 -20 l22 -20 104 25
c191 45 409 51 574 15 130 -28 306 -99 419 -167 l61 -38 110 3 c198 6 449 -22
608 -68 22 -6 41 -9 44 -6 8 8 -155 54 -283 81 -128 26 -282 45 -364 45 -42 0
-73 11 -188 68 -150 74 -283 122 -425 153 -120 26 -337 33 -432 15z m230 -25
c-3 -6 -42 -10 -88 -10 -45 0 -95 -3 -110 -6 -32 -8 -37 2 -6 13 34 13 212 15
204 3z m40 -1 c-3 -5 -10 -10 -16 -10 -5 0 -9 5 -9 10 0 6 7 10 16 10 8 0 12
-4 9 -10z m-279 -18 c-3 -5 -17 -9 -32 -9 -28 0 -21 13 11 19 24 5 29 3 21
-10z m429 -2 c3 -5 1 -10 -4 -10 -6 0 -11 5 -11 10 0 6 2 10 4 10 3 0 8 -4 11
-10z m-495 -10 c0 -5 -4 -10 -10 -10 -5 0 -10 5 -10 10 0 6 5 10 10 10 6 0 10
-4 10 -10z m-30 -5 c0 -7 -81 -27 -87 -21 -3 3 10 9 28 15 39 11 59 13 59 6z
m625 -13 c-3 -3 -11 0 -18 7 -9 10 -8 11 6 5 10 -3 15 -9 12 -12z m-825 -41
c0 -5 -9 -11 -20 -14 -22 -6 -28 8 -7 16 19 8 27 8 27 -2z m-50 -21 c0 -5 -12
-10 -27 -9 -25 0 -26 1 -8 9 27 12 35 12 35 0z m-60 -8 c0 -5 -23 -16 -52 -25
-59 -19 -53 -5 7 16 22 8 41 15 43 16 1 0 2 -3 2 -7z m1155 -2 c3 -5 15 -10
26 -10 10 0 19 -4 19 -10 0 -14 -10 -12 -50 10 -21 11 -28 19 -18 20 9 0 20
-4 23 -10z m90 -40 c3 -5 1 -10 -4 -10 -6 0 -11 5 -11 10 0 6 2 10 4 10 3 0 8
-4 11 -10z m-1405 -10 c-20 -13 -33 -13 -25 0 3 6 14 10 23 10 15 0 15 -2 2
-10z m-45 -10 c-3 -5 -11 -10 -16 -10 -6 0 -7 5 -4 10 3 6 11 10 16 10 6 0 7
-4 4 -10z m1526 -17 c27 -14 49 -30 49 -35 0 -14 -15 -9 -37 11 -12 11 -24 17
-27 14 -3 -4 -15 3 -26 15 -27 29 -18 28 41 -5z m-1734 -29 c-3 -3 -12 -4 -19
-1 -8 3 -5 6 6 6 11 1 17 -2 13 -5z"/>
<path d="M2268 1523 c-1 -5 -28 -28 -58 -53 -30 -25 -57 -47 -60 -50 -3 -3
-24 -21 -48 -39 -24 -18 -41 -36 -38 -39 3 -2 49 31 102 74 53 43 106 87 118
96 17 15 18 18 4 18 -9 0 -18 -3 -20 -7z"/>
<path d="M1213 1399 c-142 -16 -445 -91 -430 -105 3 -3 45 6 93 20 120 34 234
54 350 62 l97 7 -8 -99 c-4 -64 -3 -96 3 -89 5 6 13 56 17 113 l7 102 -29 -1
c-15 -1 -60 -5 -100 -10z"/>
<path d="M1470 1397 c0 -2 39 -17 88 -32 85 -26 282 -114 282 -126 0 -6 -163
-16 -352 -22 -49 -1 -88 -6 -88 -11 0 -5 69 -6 167 -3 91 4 215 7 275 7 59 0
108 3 108 8 0 13 -213 109 -310 140 -99 31 -170 48 -170 39z"/>
<path d="M1383 1325 c7 -14 16 -25 20 -25 9 0 -9 36 -22 44 -5 4 -4 -5 2 -19z"/>
<path d="M1231 1304 c0 -11 3 -14 6 -6 3 7 2 16 -1 19 -3 4 -6 -2 -5 -13z"/>
<path d="M106 1258 c-13 -127 -16 -218 -8 -218 5 0 12 18 16 40 7 46 56 107
93 116 24 6 24 8 -28 60 -29 30 -57 54 -60 54 -4 0 -10 -24 -13 -52z m48 -65
c-16 -12 -29 -21 -30 -20 -2 1 0 22 3 45 l6 43 24 -23 24 -23 -27 -22z"/>
<path d="M1397 1271 c-2 -10 -1 -25 4 -32 6 -10 9 -4 9 19 0 36 -5 42 -13 13z"/>
<path d="M1023 1183 c9 -2 25 -2 35 0 9 3 1 5 -18 5 -19 0 -27 -2 -17 -5z"/>
<path d="M978 1173 c7 -3 16 -2 19 1 4 3 -2 6 -13 5 -11 0 -14 -3 -6 -6z"/>
<path d="M1101 1171 c14 -5 35 -14 47 -20 12 -6 22 -9 22 -7 0 10 -59 36 -77
35 -12 0 -9 -3 8 -8z"/>
<path d="M915 1152 c-16 -11 -37 -27 -45 -38 -12 -16 -10 -15 10 2 14 12 39
29 55 37 17 9 26 16 20 17 -5 0 -23 -8 -40 -18z"/>
<path d="M1893 1163 c9 -2 23 -2 30 0 6 3 -1 5 -18 5 -16 0 -22 -2 -12 -5z"/>
<path d="M1948 1163 c6 -2 18 -2 25 0 6 3 1 5 -13 5 -14 0 -19 -2 -12 -5z"/>
<path d="M1990 1166 c0 -2 7 -7 16 -10 8 -3 12 -2 9 4 -6 10 -25 14 -25 6z"/>
<path d="M2690 1125 c33 -34 52 -45 89 -50 59 -9 104 -28 131 -55 33 -33 34
-18 2 26 -40 55 -73 74 -175 100 l-90 23 43 -44z m78 -7 c6 -6 22 -13 34 -15
12 -2 27 -8 32 -13 11 -11 -52 3 -82 19 -12 6 -22 14 -22 16 0 10 26 5 38 -7z"/>
<path d="M1618 1153 c7 -3 16 -2 19 1 4 3 -2 6 -13 5 -11 0 -14 -3 -6 -6z"/>
<path d="M1818 1153 c7 -3 16 -2 19 1 4 3 -2 6 -13 5 -11 0 -14 -3 -6 -6z"/>
<path d="M1232 1130 c0 -14 2 -19 5 -12 2 6 2 18 0 25 -3 6 -5 1 -5 -13z"/>
<path d="M1660 1142 c0 -6 9 -12 20 -15 11 -3 20 -3 20 -1 0 2 -9 8 -20 14
-11 6 -20 7 -20 2z"/>
<path d="M1764 1135 c-10 -8 -14 -14 -9 -14 6 0 19 6 29 14 11 8 15 15 10 15
-6 0 -19 -7 -30 -15z"/>
<path d="M2061 1146 c2 -2 15 -9 29 -15 24 -11 24 -11 6 3 -16 13 -49 24 -35
12z"/>
<path d="M1180 1131 c0 -5 5 -13 10 -16 6 -3 10 -2 10 4 0 5 -4 13 -10 16 -5
3 -10 2 -10 -4z"/>
<path d="M2143 1094 c15 -16 34 -38 43 -49 10 -13 9 -9 -3 13 -10 18 -29 40
-43 49 -24 15 -24 15 3 -13z"/>
<path d="M2392 1102 c-62 -23 -126 -80 -153 -137 -35 -76 -16 -241 31 -270 7
-4 11 -4 8 1 -36 75 -42 95 -42 150 0 97 49 176 134 219 92 46 188 38 265 -21
25 -19 45 -30 45 -24 0 11 -53 52 -97 74 -52 26 -130 29 -191 8z"/>
<path d="M646 1096 c-120 -45 -191 -167 -165 -286 11 -52 64 -140 88 -148 8
-3 4 9 -11 29 -46 61 -58 95 -58 161 0 54 5 72 33 118 60 101 178 144 287 106
56 -19 66 -12 14 11 -53 22 -140 27 -188 9z"/>
<path d="M1073 1043 c9 -2 25 -2 35 0 9 3 1 5 -18 5 -19 0 -27 -2 -17 -5z"/>
<path d="M1397 1033 c-159 -2 -246 -7 -242 -13 4 -6 148 -10 386 -10 412 0
419 -1 471 -56 49 -53 60 -114 33 -182 l-15 -37 20 23 c26 31 43 97 36 137 -9
47 -46 96 -91 122 -37 21 -51 23 -195 21 -85 -2 -267 -4 -403 -5z"/>
<path d="M2398 1019 c-33 -17 -51 -39 -31 -39 18 0 83 37 83 48 0 16 -8 15
-52 -9z"/>
<path d="M2486 1009 c-9 -47 -7 -99 4 -99 6 0 10 25 10 55 0 30 2 55 5 55 3 0
22 -7 42 -15 42 -18 46 -18 38 -4 -7 10 -26 19 -71 33 -18 5 -22 2 -28 -25z"/>
<path d="M690 1024 c0 -18 24 -101 32 -109 10 -9 7 14 -9 84 -6 23 -4 24 36
17 25 -4 41 -2 41 4 0 5 -22 10 -50 10 -27 0 -50 -3 -50 -6z"/>
<path d="M128 1012 c-25 -5 -24 -84 1 -137 23 -51 53 -78 114 -105 56 -25 190
-39 201 -21 5 8 -13 11 -61 11 -143 1 -222 67 -233 195 -4 51 -8 60 -22 57z"/>
<path d="M610 990 c-23 -19 -32 -32 -25 -39 11 -10 75 40 75 59 0 16 -13 11
-50 -20z"/>
<path d="M980 995 c-13 -14 -22 -27 -19 -29 2 -2 14 10 27 25 29 36 24 38 -8
4z"/>
<path d="M882 960 c27 -44 30 -56 26 -109 -9 -130 -127 -210 -247 -167 -35 13
-41 13 -32 2 20 -24 103 -39 148 -27 144 39 201 191 116 314 -38 55 -47 45
-11 -13z"/>
<path d="M791 950 c-34 -55 -38 -72 -17 -64 19 7 69 101 57 108 -5 3 -23 -17
-40 -44z"/>
<path d="M2886 948 c-33 -33 -56 -89 -56 -135 0 -18 6 -23 24 -23 13 0 39 -3
57 -6 l34 -5 -37 22 c-30 18 -38 29 -38 52 0 32 13 62 43 94 34 38 10 38 -27
1z"/>
<path d="M1216 957 c3 -10 9 -15 12 -12 3 3 0 11 -7 18 -10 9 -11 8 -5 -6z"/>
<path d="M1795 959 c-4 -6 -5 -12 -2 -15 2 -3 7 2 10 11 7 17 1 20 -8 4z"/>
<path d="M2555 920 c-40 -40 -45 -50 -29 -50 21 0 94 68 94 88 0 22 -15 13
-65 -38z"/>
<path d="M2656 931 c62 -156 -100 -320 -253 -256 -21 9 -45 23 -55 32 -10 9
-21 14 -24 11 -9 -9 61 -58 97 -68 105 -30 211 21 253 122 26 61 15 160 -20
189 -13 11 -13 7 2 -30z"/>
<path d="M2306 920 c-19 -49 -19 -50 -3 -50 7 0 17 15 22 33 7 22 16 32 28 31
14 -2 15 1 6 12 -20 24 -36 16 -53 -26z"/>
<path d="M556 904 c-10 -25 -7 -84 4 -84 6 0 10 16 10 36 0 28 5 37 21 41 16
4 17 8 7 14 -20 13 -35 11 -42 -7z"/>
<path d="M990 905 c0 -28 54 -73 111 -90 30 -9 105 -19 170 -22 120 -6 329 4
329 15 0 4 -96 7 -213 7 -248 0 -308 12 -364 72 -23 24 -33 30 -33 18z"/>
<path d="M823 871 c-60 -18 -72 -37 -17 -26 51 9 84 23 84 35 0 12 -1 12 -67
-9z"/>
<path d="M2297 833 c-7 -11 23 -83 34 -83 5 0 3 13 -5 29 -19 36 -13 41 40 41
24 0 46 5 49 10 4 6 -16 10 -54 10 -33 0 -62 -3 -64 -7z"/>
<path d="M2515 830 c3 -5 35 -10 71 -10 36 0 64 4 64 10 0 6 -30 10 -71 10
-44 0 -68 -4 -64 -10z"/>
<path d="M618 812 c-27 -8 -48 -21 -48 -27 0 -17 39 -65 52 -65 7 0 2 10 -10
23 -12 13 -22 26 -22 30 0 3 20 15 45 26 25 11 45 22 45 25 0 8 -8 7 -62 -12z"/>
<path d="M750 816 c0 -24 33 -115 40 -111 9 6 -15 94 -30 109 -6 6 -10 6 -10
2z"/>
<path d="M686 761 c-29 -56 -31 -64 -15 -59 12 4 52 99 44 106 -2 2 -15 -19
-29 -47z"/>
<path d="M2401 766 c-28 -29 -39 -46 -31 -51 6 -4 12 -5 14 -4 1 2 17 23 35
47 19 24 31 45 29 47 -2 3 -24 -15 -47 -39z"/>
<path d="M2487 753 c0 -32 4 -59 8 -60 4 -2 7 20 7 47 -1 69 -1 70 -9 70 -5 0
-7 -26 -6 -57z"/>
<path d="M1792 760 c0 -14 2 -19 5 -12 2 6 2 18 0 25 -3 6 -5 1 -5 -13z"/>
<path d="M1793 660 c0 -41 2 -58 4 -37 2 20 2 54 0 75 -2 20 -4 3 -4 -38z"/>
<path d="M2063 650 c0 -47 2 -66 4 -42 2 23 2 61 0 85 -2 23 -4 4 -4 -43z"/>
<path d="M1381 698 c-1 -15 -5 -38 -11 -53 -6 -16 -6 -24 0 -20 12 7 24 69 17
87 -3 7 -6 1 -6 -14z"/>
<path d="M1621 694 c0 -11 3 -14 6 -6 3 7 2 16 -1 19 -3 4 -6 -2 -5 -13z"/>
<path d="M1002 658 c16 -16 34 -28 41 -28 6 0 3 6 -8 12 -11 6 -29 18 -40 27
-12 9 -8 4 7 -11z"/>
<path d="M1180 665 c-13 -14 -19 -25 -14 -25 8 1 50 50 41 50 -2 0 -14 -11
-27 -25z"/>
<path d="M1620 660 c0 -5 5 -10 11 -10 5 0 7 5 4 10 -3 6 -8 10 -11 10 -2 0
-4 -4 -4 -10z"/>
<path d="M1622 620 c0 -14 2 -19 5 -12 2 6 2 18 0 25 -3 6 -5 1 -5 -13z"/>
<path d="M842 591 c13 -19 35 -41 49 -49 l24 -14 -23 19 c-13 10 -34 32 -49
48 l-25 30 24 -34z"/>
<path d="M1322 582 c-13 -13 -22 -26 -19 -28 2 -2 14 7 27 21 13 14 22 26 19
28 -2 2 -14 -8 -27 -21z"/>
<path d="M536 550 c-52 -16 -96 -73 -96 -125 0 -39 25 -92 54 -110 35 -23 101
-37 141 -29 25 4 36 13 44 34 12 35 2 48 -13 17 -9 -17 -21 -23 -58 -25 -40
-3 -51 1 -80 27 -30 27 -33 34 -33 89 0 44 5 65 19 80 38 43 126 39 151 -6
l14 -27 1 36 c0 34 -2 37 -37 43 -48 7 -70 7 -107 -4z"/>
<path d="M775 433 c-33 -83 -56 -127 -67 -131 -32 -8 -19 -17 27 -17 25 0 45
3 45 7 0 5 -7 8 -15 8 -18 0 -18 -1 0 44 14 33 19 36 55 36 36 0 41 -3 55 -36
8 -20 12 -40 9 -45 -3 -5 16 -9 43 -8 37 0 43 2 27 9 -15 6 -35 42 -68 127
-26 65 -51 121 -54 125 -4 4 -30 -50 -57 -119z m63 8 c7 -21 12 -40 12 -43 0
-2 -15 -2 -34 0 -33 4 -34 4 -20 30 8 15 14 33 14 40 0 26 17 10 28 -27z"/>
<path d="M974 548 c-3 -5 4 -8 15 -8 20 0 21 -6 21 -115 0 -98 -2 -115 -17
-124 -14 -8 0 -10 53 -11 88 0 124 22 124 74 0 32 -25 66 -48 66 -16 0 -15 8
3 26 18 19 20 70 3 81 -18 11 -149 20 -154 11z m118 -25 c33 -29 17 -83 -24
-83 -15 0 -18 9 -18 50 0 54 10 62 42 33z m21 -126 c11 -12 17 -32 15 -51 -3
-28 -7 -31 -40 -34 l-38 -3 0 61 c0 59 1 61 23 55 12 -4 30 -16 40 -28z"/>
<path d="M1366 539 c-43 -34 -36 -73 24 -128 57 -53 65 -85 24 -103 -31 -14
-57 -1 -62 31 -5 32 -22 25 -22 -9 0 -59 91 -64 133 -8 28 37 16 72 -45 128
-46 42 -49 49 -39 69 17 30 61 25 78 -9 l13 -25 0 31 c0 48 -56 61 -104 23z"/>
<path d="M1523 548 c-2 -5 5 -8 16 -8 20 0 21 -6 21 -115 0 -94 -3 -117 -15
-121 -30 -12 -14 -19 40 -19 56 0 72 8 35 18 -17 4 -20 14 -20 61 l0 56 70 0
70 0 0 -55 c0 -40 -4 -57 -15 -61 -34 -14 -9 -19 85 -19 55 0 100 3 100 8 0 4
-7 7 -15 7 -18 0 -18 -1 0 44 14 33 19 36 55 36 36 0 41 -3 55 -36 8 -20 13
-40 10 -44 -3 -4 16 -10 41 -12 46 -3 73 8 32 14 -17 2 -30 24 -65 108 -24 58
-48 116 -54 130 -10 23 -15 15 -63 -105 l-52 -130 -35 0 -34 0 -3 113 c-2 93
0 113 13 118 29 12 15 19 -35 18 -49 -2 -86 -14 -42 -14 20 0 22 -5 22 -50 l0
-50 -70 0 -70 0 0 45 c0 31 5 47 15 51 8 4 15 9 15 13 0 9 -101 8 -107 -1z
m445 -107 c7 -21 12 -40 12 -42 0 -2 -13 -4 -30 -4 -16 0 -30 2 -30 4 0 15 25
81 30 81 4 0 12 -17 18 -39z"/>
<path d="M2193 549 c-67 -20 -108 -107 -82 -176 17 -44 52 -71 108 -84 66 -15
108 -3 120 33 13 37 13 38 3 38 -4 0 -12 -10 -17 -22 -8 -18 -19 -24 -57 -26
-40 -3 -51 1 -80 27 -30 27 -33 34 -33 89 0 44 5 65 19 80 38 43 126 39 151
-6 l14 -27 1 36 c0 34 -2 37 -37 43 -48 7 -70 6 -110 -5z"/>
<path d="M2380 549 c0 -4 9 -9 20 -12 18 -5 20 -14 20 -116 0 -106 -1 -112
-22 -121 -27 -10 -24 -11 42 -12 28 0 54 2 57 6 3 3 -3 6 -14 6 -19 0 -22 7
-25 60 -1 33 -1 60 2 60 3 0 24 -24 48 -53 46 -58 69 -73 120 -80 36 -4 44 8
10 17 -13 3 -51 34 -86 69 l-64 64 54 51 c29 29 61 52 71 52 9 0 17 5 17 11 0
6 -7 8 -16 5 -9 -3 -29 -6 -45 -6 -18 0 -28 -4 -24 -10 3 -5 -14 -31 -39 -57
l-46 -48 0 53 c0 40 4 52 15 52 8 0 15 3 15 8 0 4 -25 7 -55 7 -30 0 -55 -3
-55 -6z"/>
<path d="M1235 530 c-3 -6 1 -7 9 -4 18 7 21 14 7 14 -6 0 -13 -4 -16 -10z"/>
<path d="M2070 521 c0 -5 5 -13 10 -16 6 -3 10 -2 10 4 0 5 -4 13 -10 16 -5 3
-10 2 -10 -4z"/>
<path d="M2220 389 c56 -47 79 -54 33 -10 -23 23 -48 41 -55 41 -7 0 3 -14 22
-31z"/>
</g>
</svg>
